<?xml version="1.0" encoding="utf-8"?>
<!-- Generator: Adobe Illustrator 16.0.0, SVG Export Plug-In . SVG Version: 6.00 Build 0)  -->
<!DOCTYPE svg PUBLIC "-//W3C//DTD SVG 1.1//EN" "http://www.w3.org/Graphics/SVG/1.1/DTD/svg11.dtd">
<svg version="1.1" id="Calque_1" xmlns="http://www.w3.org/2000/svg" xmlns:xlink="http://www.w3.org/1999/xlink" x="0px" y="0px"
	 width="283.511px" height="219.149px" viewBox="0 0 283.511 219.149" style="enable-background:new 0 0 283.511 219.149;"
	 xml:space="preserve">
<path style="fill:#A9EA63;stroke:#000000;stroke-miterlimit:10;" d="M93.787,120.053c0-33.861,19.103-63.256,47.117-78.01
	c-12.248-6.45-26.196-10.106-41-10.106c-48.666,0-88.117,39.451-88.117,88.117s39.451,88.117,88.117,88.117
	c14.804,0,28.752-3.656,41-10.106C112.89,183.31,93.787,153.915,93.787,120.053z"/>
<path style="fill:#F79FA4;stroke:#000000;stroke-miterlimit:10;" d="M181.903,31.937c-14.805,0-28.752,3.656-41,10.106
	c28.013,14.754,47.117,44.149,47.117,78.01s-19.104,63.256-47.117,78.01c12.248,6.45,26.195,10.106,41,10.106
	c48.666,0,88.117-39.451,88.117-88.117S230.569,31.937,181.903,31.937z"/>
<path style="fill:#CDEEF7;stroke:#000000;stroke-miterlimit:10;" d="M188.021,120.053c0-33.861-19.104-63.256-47.117-78.01
	c-28.014,14.754-47.117,44.149-47.117,78.01s19.103,63.256,47.117,78.01C168.917,183.31,188.021,153.915,188.021,120.053z"/>
<text transform="matrix(1 0 0 1 43.8931 21.3828)" style="font-family:'MyriadPro-Regular'; font-size:20;">Données</text>
<text transform="matrix(1 0 0 1 161.127 21.3828)" style="font-family:'MyriadPro-Regular'; font-size:20;">Eléments</text>
<text transform="matrix(1 0 0 1 30.3188 123.979)" style="font-family:'MyriadPro-Regular'; font-size:20;">enter()</text>
<text transform="matrix(1 0 0 1 109.4678 123.979)" style="font-family:'MyriadPro-Regular'; font-size:20;">update</text>
<text transform="matrix(1 0 0 1 209.1494 123.915)" style="font-family:'MyriadPro-Regular'; font-size:20;">exit()</text>
</svg>
